<svg version="1.1" id="Layer_1" xmlns="http://www.w3.org/2000/svg" xmlns:xlink="http://www.w3.org/1999/xlink" x="0px" y="0px"
	 width="100%" viewBox="0 0 1024 1024" enable-background="new 0 0 1024 1024" xml:space="preserve">
<path fill="#FFFFFF" opacity="1.000000" stroke="none" 
	d="
M1025.000000,493.000000 
	C1025.000000,506.020905 1025.000000,519.041809 1024.617065,532.228394 
	C1023.823608,533.241638 1023.121277,534.064087 1023.045776,534.940491 
	C1021.652771,551.097595 1020.811340,567.319031 1018.857117,583.405823 
	C1017.142334,597.521423 1014.900024,611.652527 1011.653625,625.486450 
	C1004.282227,656.897522 994.621704,687.572693 981.527161,717.193420 
	C970.314026,742.558105 957.599426,767.033081 942.296753,790.118713 
	C934.356934,802.096680 925.990173,813.829224 917.198303,825.194580 
	C907.921143,837.187256 898.462585,849.131104 888.100342,860.173950 
	C866.902283,882.764465 844.612488,904.336548 819.153076,922.143677 
	C800.427246,935.241150 781.312195,947.885559 761.652344,959.518127 
	C737.449463,973.838745 711.803833,985.528809 685.059082,994.241272 
	C662.349976,1001.639099 639.284973,1008.114197 616.070984,1013.730896 
	C601.152527,1017.340454 585.724182,1019.029907 570.439209,1020.873352 
	C559.519287,1022.190369 548.454956,1022.292664 537.465271,1023.080627 
	C536.602051,1023.142517 535.819885,1024.333618 535.000000,1025.000000 
	C520.645752,1025.000000 506.291534,1025.000000 491.771698,1024.617065 
	C490.258698,1023.822815 488.931702,1023.153748 487.560394,1023.045227 
	C481.985779,1022.603821 476.366333,1022.600708 470.820312,1021.950806 
	C454.984497,1020.095215 439.037079,1018.745667 423.393463,1015.811401 
	C404.600708,1012.286499 385.949432,1007.807373 367.466309,1002.880676 
	C343.109924,996.388550 319.738281,987.000488 296.902466,976.378906 
	C268.082489,962.973877 240.567093,947.182434 215.021378,928.287109 
	C198.673401,916.194946 182.588821,903.557922 167.648788,889.794617 
	C144.385788,868.363953 122.896332,845.176208 104.005592,819.641846 
	C87.968552,797.964722 72.983887,775.613220 61.070190,751.455322 
	C50.793949,730.617737 41.124115,709.402222 32.652752,687.779236 
	C26.238523,671.406921 21.448708,654.300049 17.201666,637.205627 
	C13.237425,621.249390 10.783630,604.906006 7.971999,588.679810 
	C6.336048,579.238647 5.018537,569.720703 4.088726,560.185486 
	C3.320939,552.311890 3.390334,544.358765 2.916461,536.451172 
	C2.865386,535.598877 1.666465,534.815430 0.999998,534.000000 
	C1.000000,520.312439 1.000000,506.624878 1.441525,492.459625 
	C2.250725,491.544647 2.914350,491.125031 2.941646,490.667450 
	C3.344122,483.920929 3.558120,477.162109 4.026888,470.420837 
	C4.583672,462.413849 4.789771,454.327240 6.126162,446.440918 
	C9.093281,428.931366 12.234119,411.428040 16.091139,394.097351 
	C23.926291,358.891724 36.253925,325.186157 51.805595,292.683563 
	C63.563885,268.109070 77.349426,244.725861 92.838737,222.256378 
	C106.547653,202.369598 121.660522,183.665146 137.868851,165.876160 
	C147.906784,154.859299 158.891113,144.642441 170.005829,134.686279 
	C181.423782,124.458488 193.324738,114.741280 205.355942,105.232887 
	C228.566605,86.889267 253.803314,71.620651 280.054596,58.123287 
	C293.728882,51.092495 307.750244,44.504169 322.157715,39.187019 
	C343.177063,31.429726 364.462219,24.183584 386.056702,18.260523 
	C402.972351,13.620799 420.491821,11.106210 437.815552,8.059922 
	C447.899475,6.286716 458.099396,5.036349 468.297211,4.090388 
	C476.673065,3.313437 485.125885,3.387078 493.535187,2.916022 
	C494.389893,2.868143 495.179932,1.666328 496.000000,1.000001 
	C506.687561,1.000000 517.375122,1.000000 528.228333,1.383091 
	C529.408264,2.177094 530.402222,2.881526 531.440063,2.953624 
	C542.100891,3.694246 552.809326,3.953790 563.425293,5.088857 
	C578.942444,6.747960 594.547485,8.228867 609.838867,11.205129 
	C633.317627,15.774972 656.404968,21.986670 679.079895,29.859015 
	C712.873291,41.591518 745.050659,56.484890 775.756897,74.867531 
	C806.519897,93.284081 834.947449,114.711029 861.251099,138.944962 
	C871.479675,148.368668 881.034851,158.587357 890.299194,168.976776 
	C900.832458,180.789215 911.008850,192.953018 920.784668,205.400452 
	C938.640381,228.135941 953.869629,252.630447 966.921997,278.392700 
	C974.236450,292.829620 981.270447,307.514587 986.966248,322.639343 
	C994.408081,342.400482 1001.083862,362.515350 1006.796753,382.841309 
	C1011.234497,398.630402 1013.958557,414.926727 1016.941284,431.090424 
	C1019.061157,442.578094 1020.641724,454.188019 1021.897339,465.804535 
	C1022.764771,473.829254 1022.600586,481.962280 1023.083008,490.035767 
	C1023.144104,491.058380 1024.333374,492.013550 1025.000000,493.000000 
M588.626953,283.999847 
	C573.298279,282.000244 557.992859,279.793121 542.633362,278.067871 
	C530.749207,276.733032 518.811523,275.753571 506.871796,275.062805 
	C491.047852,274.147339 475.194946,273.044617 459.361176,273.139130 
	C432.519897,273.299408 405.683014,274.301392 378.846191,275.021118 
	C371.590302,275.215698 364.338379,275.615265 357.090393,276.022766 
	C353.165619,276.243408 349.239197,276.565674 345.337341,277.038513 
	C332.081329,278.644928 318.826508,280.267853 305.589233,282.020355 
	C293.672180,283.598053 281.645782,284.717773 269.903809,287.170258 
	C248.324142,291.677521 226.866089,296.805206 205.459106,302.086761 
	C192.572906,305.266022 180.386078,309.786072 171.517105,320.830658 
	C159.028458,336.382812 157.269073,355.857056 166.294952,372.178345 
	C177.730026,392.856079 199.378952,402.735016 223.983688,395.100739 
	C237.935486,390.771790 252.132889,386.980438 266.460663,384.179993 
	C285.377075,380.482605 304.497711,377.768036 323.591492,375.060577 
	C337.957336,373.023499 352.399628,371.461456 366.844543,370.067383 
	C377.316101,369.056763 387.847870,368.105316 398.352356,368.109894 
	C426.271576,368.122009 454.197601,368.389923 482.106842,369.105835 
	C497.877869,369.510406 513.629700,370.881775 529.373779,372.040680 
	C540.139587,372.833099 550.924377,373.660156 561.615967,375.100159 
	C576.394226,377.090576 591.158630,379.323822 605.808228,382.092407 
	C622.751465,385.294464 639.740967,388.522888 656.389404,392.947693 
	C679.317322,399.041504 702.231506,405.444153 724.615234,413.251984 
	C744.848572,420.309753 764.559204,428.994141 784.119080,437.807312 
	C796.100342,443.205688 807.205627,450.514282 818.989258,456.394012 
	C833.307373,463.538391 848.191956,463.317871 861.849792,455.370361 
	C878.386902,445.747345 887.068726,431.048248 886.076660,411.197754 
	C885.330261,396.264160 879.048767,383.797821 866.829041,376.305389 
	C848.929810,365.330627 830.105286,355.690887 811.051331,346.822052 
	C791.612915,337.774261 771.644043,329.732178 751.490356,322.395416 
	C734.183411,316.095032 716.396545,311.015747 698.618896,306.135956 
	C684.195923,302.177002 669.491821,299.223938 654.874634,295.996124 
	C642.277954,293.214478 629.666443,290.468475 616.988403,288.097321 
	C607.900574,286.397644 598.692200,285.342621 588.626953,283.999847 
M731.566101,598.961609 
	C736.990479,602.088684 742.516296,605.053894 747.818359,608.376099 
	C759.378601,615.619751 771.386658,620.822998 785.398071,616.971191 
	C805.711243,611.387146 819.440979,590.294006 813.571106,569.048096 
	C810.303040,557.219666 802.310364,549.656494 792.055115,543.357849 
	C768.145447,528.672791 743.201538,515.903564 717.312927,505.425995 
	C692.118347,495.229370 666.049316,487.125092 640.161621,478.726837 
	C610.208496,469.009735 579.262268,463.347321 548.284668,458.112396 
	C532.732605,455.484222 517.025024,453.591400 501.317139,452.120544 
	C485.112518,450.603149 468.831512,449.410461 452.566833,449.152313 
	C432.995789,448.841705 413.396484,449.384125 393.828888,450.094116 
	C379.560242,450.611847 365.296692,451.721283 351.079590,453.077606 
	C337.471710,454.375793 323.881531,456.035828 310.367554,458.089478 
	C298.398834,459.908234 286.470978,462.155304 274.660004,464.812958 
	C259.455994,468.234100 244.336563,472.066406 229.279495,476.091125 
	C221.355240,478.209290 213.391907,480.820740 207.559616,487.037323 
	C198.675491,496.506805 193.864822,507.320221 195.840134,520.881409 
	C197.173050,530.032410 201.071976,537.694702 207.449890,543.703857 
	C218.782547,554.381104 232.574539,557.481323 247.417374,552.753662 
	C280.176758,542.319214 313.836365,536.339294 347.822754,532.130615 
	C364.566498,530.057129 381.470551,528.344666 398.314331,528.227112 
	C424.973419,528.041138 451.656281,529.012512 478.302246,530.132507 
	C491.832275,530.701233 505.359192,532.259949 518.787292,534.101746 
	C534.982422,536.323120 551.223267,538.630371 567.169556,542.146362 
	C589.751099,547.125366 612.248230,552.659729 634.480164,559.011414 
	C668.049194,568.601990 699.994263,582.425537 731.566101,598.961609 
M393.749573,679.000061 
	C400.501007,678.666748 407.261200,677.928772 414.002228,678.075073 
	C435.340668,678.538208 456.688904,679.006775 477.999847,680.116638 
	C491.363586,680.812744 504.719635,682.282104 517.983398,684.102051 
	C532.245911,686.059021 546.573914,688.085693 560.557678,691.409668 
	C586.767334,697.639893 612.572449,705.251099 637.534607,715.696716 
	C659.502441,724.889221 680.671326,735.457092 701.245056,747.423218 
	C707.037354,750.792175 714.175903,753.611511 720.680786,753.577698 
	C730.507751,753.526794 739.059143,748.836792 745.287231,740.355835 
	C753.714355,728.880127 753.672607,711.110840 743.109741,702.156616 
	C732.890320,693.493347 720.992493,686.525757 709.108032,680.165894 
	C677.202148,663.091797 643.923157,649.026428 608.930237,639.652039 
	C585.318359,633.326538 561.430908,627.842529 537.426025,623.235840 
	C520.826172,620.050293 503.851105,618.599609 486.978027,617.125122 
	C472.527863,615.862305 457.989899,615.424988 443.480042,615.094055 
	C435.240936,614.906128 426.981659,615.708374 418.728882,615.988281 
	C407.646637,616.364197 396.554688,616.516235 385.480377,617.046021 
	C376.135040,617.493042 366.761261,617.954956 357.484741,619.097412 
	C341.041931,621.122620 324.627472,623.444519 308.267853,626.059570 
	C291.184448,628.790222 274.119995,631.717590 257.166046,635.146240 
	C248.730240,636.852295 239.955399,638.690613 232.402740,642.556946 
	C219.000458,649.417786 214.064575,662.479309 218.035065,677.677002 
	C222.377426,694.298096 238.021866,702.834534 254.750870,699.907288 
	C277.818298,695.870789 300.725159,690.887756 323.832947,687.120789 
	C340.539581,684.397400 357.459259,682.975891 374.287994,681.008667 
	C380.451324,680.288269 386.626434,679.668274 393.749573,679.000061 
z"/>
<path fill="#000000" opacity="1.000000" stroke="none" 
	d="
M1025.000000,492.531311 
	C1024.333374,492.013550 1023.144104,491.058380 1023.083008,490.035767 
	C1022.600586,481.962280 1022.764771,473.829254 1021.897339,465.804535 
	C1020.641724,454.188019 1019.061157,442.578094 1016.941284,431.090424 
	C1013.958557,414.926727 1011.234497,398.630402 1006.796753,382.841309 
	C1001.083862,362.515350 994.408081,342.400482 986.966248,322.639343 
	C981.270447,307.514587 974.236450,292.829620 966.921997,278.392700 
	C953.869629,252.630447 938.640381,228.135941 920.784668,205.400452 
	C911.008850,192.953018 900.832458,180.789215 890.299194,168.976776 
	C881.034851,158.587357 871.479675,148.368668 861.251099,138.944962 
	C834.947449,114.711029 806.519897,93.284081 775.756897,74.867531 
	C745.050659,56.484890 712.873291,41.591518 679.079895,29.859015 
	C656.404968,21.986670 633.317627,15.774972 609.838867,11.205129 
	C594.547485,8.228867 578.942444,6.747960 563.425293,5.088857 
	C552.809326,3.953790 542.100891,3.694246 531.440063,2.953624 
	C530.402222,2.881526 529.408264,2.177094 528.697021,1.383091 
	C694.260132,1.000000 859.520264,1.000000 1025.000000,1.000000 
	C1025.000000,164.687500 1025.000000,328.375092 1025.000000,492.531311 
z"/>
<path fill="#000000" opacity="1.000000" stroke="none" 
	d="
M495.531342,1.000001 
	C495.179932,1.666328 494.389893,2.868143 493.535187,2.916022 
	C485.125885,3.387078 476.673065,3.313437 468.297211,4.090388 
	C458.099396,5.036349 447.899475,6.286716 437.815552,8.059922 
	C420.491821,11.106210 402.972351,13.620799 386.056702,18.260523 
	C364.462219,24.183584 343.177063,31.429726 322.157715,39.187019 
	C307.750244,44.504169 293.728882,51.092495 280.054596,58.123287 
	C253.803314,71.620651 228.566605,86.889267 205.355942,105.232887 
	C193.324738,114.741280 181.423782,124.458488 170.005829,134.686279 
	C158.891113,144.642441 147.906784,154.859299 137.868851,165.876160 
	C121.660522,183.665146 106.547653,202.369598 92.838737,222.256378 
	C77.349426,244.725861 63.563885,268.109070 51.805595,292.683563 
	C36.253925,325.186157 23.926291,358.891724 16.091139,394.097351 
	C12.234119,411.428040 9.093281,428.931366 6.126162,446.440918 
	C4.789771,454.327240 4.583672,462.413849 4.026888,470.420837 
	C3.558120,477.162109 3.344122,483.920929 2.941646,490.667450 
	C2.914350,491.125031 2.250725,491.544647 1.441525,491.990967 
	C1.000000,328.405945 1.000000,164.811905 1.000000,1.000000 
	C165.687500,1.000000 330.375092,1.000000 495.531342,1.000001 
z"/>
<path fill="#000000" opacity="1.000000" stroke="none" 
	d="
M535.468628,1025.000000 
	C535.819885,1024.333618 536.602051,1023.142517 537.465271,1023.080627 
	C548.454956,1022.292664 559.519287,1022.190369 570.439209,1020.873352 
	C585.724182,1019.029907 601.152527,1017.340454 616.070984,1013.730896 
	C639.284973,1008.114197 662.349976,1001.639099 685.059082,994.241272 
	C711.803833,985.528809 737.449463,973.838745 761.652344,959.518127 
	C781.312195,947.885559 800.427246,935.241150 819.153076,922.143677 
	C844.612488,904.336548 866.902283,882.764465 888.100342,860.173950 
	C898.462585,849.131104 907.921143,837.187256 917.198303,825.194580 
	C925.990173,813.829224 934.356934,802.096680 942.296753,790.118713 
	C957.599426,767.033081 970.314026,742.558105 981.527161,717.193420 
	C994.621704,687.572693 1004.282227,656.897522 1011.653625,625.486450 
	C1014.900024,611.652527 1017.142334,597.521423 1018.857117,583.405823 
	C1020.811340,567.319031 1021.652771,551.097595 1023.045776,534.940491 
	C1023.121277,534.064087 1023.823608,533.241638 1024.617065,532.697021 
	C1025.000000,696.926941 1025.000000,860.853821 1025.000000,1025.000000 
	C861.979187,1025.000000 698.958252,1025.000000 535.468628,1025.000000 
z"/>
<path fill="#000000" opacity="1.000000" stroke="none" 
	d="
M0.999998,534.468628 
	C1.666465,534.815430 2.865386,535.598877 2.916461,536.451172 
	C3.390334,544.358765 3.320939,552.311890 4.088726,560.185486 
	C5.018537,569.720703 6.336048,579.238647 7.971999,588.679810 
	C10.783630,604.906006 13.237425,621.249390 17.201666,637.205627 
	C21.448708,654.300049 26.238523,671.406921 32.652752,687.779236 
	C41.124115,709.402222 50.793949,730.617737 61.070190,751.455322 
	C72.983887,775.613220 87.968552,797.964722 104.005592,819.641846 
	C122.896332,845.176208 144.385788,868.363953 167.648788,889.794617 
	C182.588821,903.557922 198.673401,916.194946 215.021378,928.287109 
	C240.567093,947.182434 268.082489,962.973877 296.902466,976.378906 
	C319.738281,987.000488 343.109924,996.388550 367.466309,1002.880676 
	C385.949432,1007.807373 404.600708,1012.286499 423.393463,1015.811401 
	C439.037079,1018.745667 454.984497,1020.095215 470.820312,1021.950806 
	C476.366333,1022.600708 481.985779,1022.603821 487.560394,1023.045227 
	C488.931702,1023.153748 490.258698,1023.822815 491.303040,1024.617065 
	C327.739502,1025.000000 164.479019,1025.000000 1.000000,1025.000000 
	C1.000000,861.645813 1.000000,698.291565 0.999998,534.468628 
z"/>
<path fill="#000000" opacity="1.000000" stroke="none" 
	d="
M589.082275,283.999939 
	C598.692200,285.342621 607.900574,286.397644 616.988403,288.097321 
	C629.666443,290.468475 642.277954,293.214478 654.874634,295.996124 
	C669.491821,299.223938 684.195923,302.177002 698.618896,306.135956 
	C716.396545,311.015747 734.183411,316.095032 751.490356,322.395416 
	C771.644043,329.732178 791.612915,337.774261 811.051331,346.822052 
	C830.105286,355.690887 848.929810,365.330627 866.829041,376.305389 
	C879.048767,383.797821 885.330261,396.264160 886.076660,411.197754 
	C887.068726,431.048248 878.386902,445.747345 861.849792,455.370361 
	C848.191956,463.317871 833.307373,463.538391 818.989258,456.394012 
	C807.205627,450.514282 796.100342,443.205688 784.119080,437.807312 
	C764.559204,428.994141 744.848572,420.309753 724.615234,413.251984 
	C702.231506,405.444153 679.317322,399.041504 656.389404,392.947693 
	C639.740967,388.522888 622.751465,385.294464 605.808228,382.092407 
	C591.158630,379.323822 576.394226,377.090576 561.615967,375.100159 
	C550.924377,373.660156 540.139587,372.833099 529.373779,372.040680 
	C513.629700,370.881775 497.877869,369.510406 482.106842,369.105835 
	C454.197601,368.389923 426.271576,368.122009 398.352356,368.109894 
	C387.847870,368.105316 377.316101,369.056763 366.844543,370.067383 
	C352.399628,371.461456 337.957336,373.023499 323.591492,375.060577 
	C304.497711,377.768036 285.377075,380.482605 266.460663,384.179993 
	C252.132889,386.980438 237.935486,390.771790 223.983688,395.100739 
	C199.378952,402.735016 177.730026,392.856079 166.294952,372.178345 
	C157.269073,355.857056 159.028458,336.382812 171.517105,320.830658 
	C180.386078,309.786072 192.572906,305.266022 205.459106,302.086761 
	C226.866089,296.805206 248.324142,291.677521 269.903809,287.170258 
	C281.645782,284.717773 293.672180,283.598053 305.589233,282.020355 
	C318.826508,280.267853 332.081329,278.644928 345.337341,277.038513 
	C349.239197,276.565674 353.165619,276.243408 357.090393,276.022766 
	C364.338379,275.615265 371.590302,275.215698 378.846191,275.021118 
	C405.683014,274.301392 432.519897,273.299408 459.361176,273.139130 
	C475.194946,273.044617 491.047852,274.147339 506.871796,275.062805 
	C518.811523,275.753571 530.749207,276.733032 542.633362,278.067871 
	C557.992859,279.793121 573.298279,282.000244 589.082275,283.999939 
z"/>
<path fill="#000000" opacity="1.000000" stroke="none" 
	d="
M731.272522,598.716309 
	C699.994263,582.425537 668.049194,568.601990 634.480164,559.011414 
	C612.248230,552.659729 589.751099,547.125366 567.169556,542.146362 
	C551.223267,538.630371 534.982422,536.323120 518.787292,534.101746 
	C505.359192,532.259949 491.832275,530.701233 478.302246,530.132507 
	C451.656281,529.012512 424.973419,528.041138 398.314331,528.227112 
	C381.470551,528.344666 364.566498,530.057129 347.822754,532.130615 
	C313.836365,536.339294 280.176758,542.319214 247.417374,552.753662 
	C232.574539,557.481323 218.782547,554.381104 207.449890,543.703857 
	C201.071976,537.694702 197.173050,530.032410 195.840134,520.881409 
	C193.864822,507.320221 198.675491,496.506805 207.559616,487.037323 
	C213.391907,480.820740 221.355240,478.209290 229.279495,476.091125 
	C244.336563,472.066406 259.455994,468.234100 274.660004,464.812958 
	C286.470978,462.155304 298.398834,459.908234 310.367554,458.089478 
	C323.881531,456.035828 337.471710,454.375793 351.079590,453.077606 
	C365.296692,451.721283 379.560242,450.611847 393.828888,450.094116 
	C413.396484,449.384125 432.995789,448.841705 452.566833,449.152313 
	C468.831512,449.410461 485.112518,450.603149 501.317139,452.120544 
	C517.025024,453.591400 532.732605,455.484222 548.284668,458.112396 
	C579.262268,463.347321 610.208496,469.009735 640.161621,478.726837 
	C666.049316,487.125092 692.118347,495.229370 717.312927,505.425995 
	C743.201538,515.903564 768.145447,528.672791 792.055115,543.357849 
	C802.310364,549.656494 810.303040,557.219666 813.571106,569.048096 
	C819.440979,590.294006 805.711243,611.387146 785.398071,616.971191 
	C771.386658,620.822998 759.378601,615.619751 747.818359,608.376099 
	C742.516296,605.053894 736.990479,602.088684 731.272522,598.716309 
z"/>
<path fill="#000000" opacity="1.000000" stroke="none" 
	d="
M393.272888,679.001221 
	C386.626434,679.668274 380.451324,680.288269 374.287994,681.008667 
	C357.459259,682.975891 340.539581,684.397400 323.832947,687.120789 
	C300.725159,690.887756 277.818298,695.870789 254.750870,699.907288 
	C238.021866,702.834534 222.377426,694.298096 218.035065,677.677002 
	C214.064575,662.479309 219.000458,649.417786 232.402740,642.556946 
	C239.955399,638.690613 248.730240,636.852295 257.166046,635.146240 
	C274.119995,631.717590 291.184448,628.790222 308.267853,626.059570 
	C324.627472,623.444519 341.041931,621.122620 357.484741,619.097412 
	C366.761261,617.954956 376.135040,617.493042 385.480377,617.046021 
	C396.554688,616.516235 407.646637,616.364197 418.728882,615.988281 
	C426.981659,615.708374 435.240936,614.906128 443.480042,615.094055 
	C457.989899,615.424988 472.527863,615.862305 486.978027,617.125122 
	C503.851105,618.599609 520.826172,620.050293 537.426025,623.235840 
	C561.430908,627.842529 585.318359,633.326538 608.930237,639.652039 
	C643.923157,649.026428 677.202148,663.091797 709.108032,680.165894 
	C720.992493,686.525757 732.890320,693.493347 743.109741,702.156616 
	C753.672607,711.110840 753.714355,728.880127 745.287231,740.355835 
	C739.059143,748.836792 730.507751,753.526794 720.680786,753.577698 
	C714.175903,753.611511 707.037354,750.792175 701.245056,747.423218 
	C680.671326,735.457092 659.502441,724.889221 637.534607,715.696716 
	C612.572449,705.251099 586.767334,697.639893 560.557678,691.409668 
	C546.573914,688.085693 532.245911,686.059021 517.983398,684.102051 
	C504.719635,682.282104 491.363586,680.812744 477.999847,680.116638 
	C456.688904,679.006775 435.340668,678.538208 414.002228,678.075073 
	C407.261200,677.928772 400.501007,678.666748 393.272888,679.001221 
z"/>
</svg>